<?xml version="1.0" encoding="utf-8"?>
<!-- Generator: Adobe Illustrator 19.0.0, SVG Export Plug-In . SVG Version: 6.00 Build 0)  -->
<svg version="1.1" id="Layer_1" xmlns="http://www.w3.org/2000/svg" xmlns:xlink="http://www.w3.org/1999/xlink" x="0px" y="0px"
	 viewBox="0 0 500 500" style="enable-background:new 0 0 500 500;" xml:space="preserve">
<style type="text/css">
	.st0{fill:#002885;}
</style>
<g id="XMLID_21_">
	<path id="XMLID_23_" class="st0" d="M432.5,328.5c-16.6,0-33.5,0-49.9,0c-0.5,0-1.3-2-1.5-2.4c-6.9-12.4-13.7-24.8-20.6-37.2
		c-7.3,13.2-14.4,26.6-21.7,39.8c-16.3,0-32.5-0.1-48.8,0c1.8-3.4,3.8-6.8,5.7-10.2c13.6-23.5,27.1-47.4,40.7-71
		c-14.5-25.3-29.2-50.5-43.8-75.8c0,0-0.1-0.2,0-0.1c16.7,0,33.4,0,50.1,0c6.2,11.2,12.2,22.6,18.2,33.9
		c6.3-11.2,12.4-22.6,18.6-33.9c16.2,0,32.3,0,48.5,0c0,0.2-0.1,0.4-0.2,0.6c-14.1,24.9-28.6,49.8-42.8,74.7
		C400.9,274,416.9,301.3,432.5,328.5z"/>
	<path id="XMLID_29_" class="st0" d="M311.3,232.4c1.3,5.2,2,10.9,2,16.9c0,18.7-5.4,32.6-13,43.9c-1.3,1.9-2.6,3.8-4,5.5
		c-4.1,5.2-9,9.9-14.6,13.8c-3.7,2.6-7.6,5-11.9,7c-8.5,4-18.9,7.1-30.8,7.1c-18.6,0-32.3-5.7-43.4-13.4
		c-11.1-7.8-19.8-18.1-25.7-31.1c-4-8.7-6.5-18.8-6.8-31c-0.1-6.1,0.6-12.1,1.7-17.2c2.8-13.1,8.3-23.3,15.2-32.2
		c6.9-8.8,15.7-15.7,26.4-20.9c4.2-2,8.8-3.8,13.9-5c5.1-1.3,10.7-2.1,16.8-2.1h0.1c5.9-0.3,12.3,0.7,17.2,1.8
		c5.1,1.1,9.9,2.9,14.2,4.8c13.2,5.9,23,14.8,30.9,26C304.9,213.5,308.8,222.2,311.3,232.4z M251.5,284.4c0.5-1.9,0.3-4.4,0.3-6.9
		c0-19.3,0-38.3,0-57.7c0-2.5-0.3-4.4-1-6.2c-0.7-1.6-1.7-3.1-2.9-4.4c-2.3-2.4-5.8-4.5-10.3-4.2c-2.1,0.2-3.9,0.8-5.5,1.8
		c-2.9,1.8-5.1,4.6-6,8.4c-0.5,1.9-0.4,4.3-0.4,6.8c0,19.1,0,38.4,0,57.7c0,1.2-0.1,2.4,0.1,3.5c0.4,3,1.8,5.5,3.6,7.3
		c2.3,2.3,5.8,4.3,10.4,3.8C245.8,293.7,250.1,289.8,251.5,284.4z"/>
	<path id="XMLID_30_" class="st0" d="M165.3,214.3c-17.7,0-35.3,0-53,0c-0.2,6.6,0,13.9-0.1,20.5c14.3,0.1,28.9,0,43.3,0
		c0,14.3,0,28.6,0,43c-14.5,0-29.2-0.1-43.6,0c0,17,0.1,33.8,0.1,50.8l0,0.1c-14.7,0-29.5,0-44.2,0l-0.1,0
		c-0.1-52.3-0.1-105,0-157.3l0-0.1c31.6,0,63.1,0,94.7,0l0.1,0C163.4,185.6,164.3,200,165.3,214.3z"/>
</g>
</svg>
